# xmcd
#
# Track frame offsets:
# 182
# 12362
# 21830
# 39795
# 50797
# 63157
# 74957
# 85247
# 94670
# 103857
# 116952
# 128500
# 142387
# 151492
# 165107
# 173220
# 184325
# 195095
#
# Disc length: 2723 seconds
#
#
# Revision: 0
# Processed by: cddbd v1.4PL0 Copyright (c) Steve Scherf et al.
# Submitted via: FreeRIP 2.30 
#
DISCID=f80aa112
DTITLE=Various Artist - Favourites From Nashvile
DYEAR=1900
DGENRE=Country
TTITLE0=JUST A LITTLE LOVIN' - EDDY ARNOLD
TTITLE1=HEARTACHES BY THE NUMBER - WAYLON JENNINGS
TTITLE2=VANNESSA - CHET ATKINS
TTITLE3=GREEN GREEN GRASS OF HOME - PORTER WAGONER
TTITLE4=D-I-V-O-R-C-E - DOLLY PARTON
TTITLE5=THE LAST RIDE - HANK SNOW
TTITLE6=I DON'T HURT ANYMORE - DOTTIE WEST AND THE HEARTACHES
TTITLE7=PICK ME UP ON YOUR WAY DOWN - NORMA JEAN
TTITLE8=SWEET TALK - BOOTS RANDOLPH
TTITLE9=TAKE ME IN YOUR ARMS AND HOLD ME - EDDY ARNOLD
TTITLE10=CRY,CRY,CRY, - CONNIE SMITH
TTITLE11=ALMOST PERSUADED - JIM ED BROWN
TTITLE12=BLUEBERRY HILL- SKEETER DAVIS
TTITLE13=CHERISH - FLOYD CRAMER
TTITLE14=IT HAPPENED JUST THAT WAY - RODGER MILLER
TTITLE15=HEY LITTLE DUCKY - SONNY JAMES
TTITLE16=SHE LOVES EVERYBODY BUT ME - CHARLIE RICH
TTITLE17=YAKETY SAX - BOOTS RANDOLPH
EXTD=
EXTT0=
EXTT1=
EXTT2=
EXTT3=
EXTT4=
EXTT5=
EXTT6=
EXTT7=
EXTT8=
EXTT9=
EXTT10=
EXTT11=
EXTT12=
EXTT13=
EXTT14=
EXTT15=
EXTT16=
EXTT17=
PLAYORDER=
